<svg xmlns="http://www.w3.org/2000/svg" width="72" height="42" viewBox="0 0 72 42">
  <g fill="none" fill-rule="evenodd">
    <rect width="72" height="42"/>
    <path fill="#1A1F71" fill-rule="nonzero" d="M34.7125764,29.0478077 L31.1289815,12.5772846 L26.7946948,12.5772846 L30.3782897,29.0478077 L34.7125764,29.0478077 Z M52.9456222,18.4126922 L55.2278351,24.5979348 L56.5388062,18.4126922 L52.9456222,18.4126922 Z M57.7836807,12.5772846 L61.7909096,12.5772846 L58.2898498,29.0478077 L54.5925552,29.0478077 C53.7586434,29.0478077 53.057952,28.5720457 52.7469902,27.8403891 L46.2435052,12.5772846 L50.7949173,12.5772846 L51.6976654,15.0375768 L57.2583334,15.0375768 L57.7836807,12.5772846 Z M46.4695347,17.9547755 C46.4876856,22.3009438 40.3571493,22.5420235 40.3972182,24.484129 C40.4119443,25.0743702 40.9838674,25.7029955 42.2359338,25.8636031 C42.8561451,25.9423917 44.5695171,26.0053552 46.5102885,25.1262225 L47.2695421,28.6208677 C46.2267243,28.9915782 44.884931,29.3484839 43.2157374,29.3484839 C38.9311087,29.3484839 35.9170396,27.1110894 35.8930668,23.9046624 C35.8649844,21.5329232 38.0458265,20.2110254 39.6859102,19.4211191 C41.3753094,18.6143776 41.941753,18.0958543 41.9338762,17.3749722 C41.9218898,16.2699114 40.5848911,15.7806813 39.3417289,15.7624993 C37.1619142,15.7284923 35.8982038,16.3416293 34.8903178,16.8032497 L34.1036667,13.1927785 C35.1177172,12.7358719 36.9865701,12.3388986 38.9222045,12.3186964 C43.4770412,12.3186964 46.4561784,14.5305014 46.4695347,17.9547755 L46.4695347,17.9547755 Z M28.5190258,29.0478077 L21.4970429,12.5772846 L16.9154936,12.5772846 L13.4596397,25.7221876 C13.2503911,26.5299392 13.0681977,26.8272484 12.4305205,27.1686657 C11.3883876,27.7252365 9.66748121,28.24578 8.15479596,28.5696888 L8.2568517,29.0478077 L15.632605,29.0478077 C16.5713123,29.0478077 17.4165257,28.4333239 17.6312537,27.3693409 L19.457298,17.8376027 L23.9652165,29.0478077 L28.5190258,29.0478077 Z" transform="matrix(1 0 0 -1 0 41.667)"/>
    <polygon fill="#1A1F71" fill-rule="nonzero" points="40.259 33.345 38.498 33.345 38.498 31.733 40.468 31.733 40.468 31.249 37.905 31.249 37.905 35.72 40.367 35.72 40.367 35.235 38.498 35.235 38.498 33.823 40.259 33.823" transform="matrix(1 0 0 -1 0 66.968)"/>
    <polygon fill="#1A1F71" fill-rule="nonzero" points="41.378 35.719 41.974 35.719 41.974 31.01 41.378 31.01" transform="matrix(1 0 0 -1 0 66.73)"/>
    <path fill="#1A1F71" fill-rule="nonzero" d="M45.2092148,34.4327398 C45.2160642,34.7973896 45.0540764,35.3744993 44.386262,35.3744993 C43.7790646,35.3744993 43.5225553,34.8371206 43.4752946,34.4327398 L45.2092148,34.4327398 Z M43.4687877,34.0148908 C43.482144,33.2253212 43.9883131,32.9004023 44.5883187,32.9004023 C45.0136651,32.9004023 45.2766812,32.973467 45.4927791,33.0660604 L45.6006568,32.6482114 C45.3914083,32.555618 45.0273638,32.4428223 44.507496,32.4428223 C43.5026921,32.4428223 42.9023441,33.0993941 42.9023441,34.0677532 C42.9023441,35.0361124 43.482144,35.7923483 44.4335227,35.7923483 C45.5061354,35.7923483 45.7828503,34.8768516 45.7828503,34.2866105 C45.7828503,34.1674174 45.7760009,34.0812213 45.7623021,34.0148908 L43.4687877,34.0148908 L43.4687877,34.0148908 Z" transform="matrix(1 0 0 -1 0 68.235)"/>
    <path fill="#1A1F71" fill-rule="nonzero" d="M49.0128117,32.6288173 C48.8576733,32.5557527 48.513492,32.442957 48.0751318,32.442957 C47.0901912,32.442957 46.4494318,33.0995287 46.4494318,34.081356 C46.4494318,35.0695807 47.1371094,35.792483 48.2032152,35.792483 C48.5539034,35.792483 48.8641802,35.7066236 49.026168,35.6200908 L48.8915777,35.1756423 C48.7494531,35.2487069 48.5268483,35.3285056 48.2032152,35.3285056 C47.4542356,35.3285056 47.0497798,34.7779955 47.0497798,34.114353 C47.0497798,33.3715851 47.5354008,32.9140051 48.1830095,32.9140051 C48.5203414,32.9140051 48.7429462,32.9934672 48.9114409,33.0665318 L49.0128117,32.6288173 Z" transform="matrix(1 0 0 -1 0 68.235)"/>
    <path fill="#1A1F71" fill-rule="nonzero" d="M50.6779984,35.7923483 L50.6779984,35.0229809 L51.5276638,35.0229809 L51.5276638,34.5788691 L50.6779984,34.5788691 L50.6779984,32.8475399 C50.6779984,32.4492197 50.7927255,32.2239651 51.123208,32.2239651 C51.2848533,32.2239651 51.3797172,32.2370965 51.4673893,32.2640328 L51.4944443,31.8192475 C51.3797172,31.7795165 51.1975238,31.7397855 50.9680696,31.7397855 C50.6913547,31.7397855 50.4687499,31.8327157 50.3273102,31.9849056 C50.1653224,32.1643686 50.097856,32.4492197 50.097856,32.8273377 L50.097856,34.5788691 L49.591687,34.5788691 L49.591687,35.0229809 L50.097856,35.0229809 L50.097856,35.6199561 L50.6779984,35.7923483 Z" transform="matrix(1 0 0 -1 0 67.532)"/>
    <path fill="#1A1F71" fill-rule="nonzero" d="M52.3569181,34.6515297 C52.3569181,35.0296476 52.3497262,35.3545665 52.329863,35.6532224 L52.8493884,35.6532224 L52.8764434,35.0165162 L52.8963066,35.0165162 C53.0449381,35.4474966 53.4089826,35.719553 53.8069315,35.719553 C53.867891,35.719553 53.9151517,35.712819 53.9692618,35.7064216 L53.9692618,35.1555747 C53.9083023,35.1690429 53.8480278,35.1690429 53.7665202,35.1690429 C53.3487081,35.1690429 53.0514451,34.8639895 52.9706224,34.4259383 C52.9572661,34.3464763 52.9504167,34.2471488 52.9504167,34.153882 L52.9504167,32.442755 L52.3569181,32.442755 L52.3569181,34.6515297 Z" transform="matrix(1 0 0 -1 0 68.162)"/>
    <path fill="#1A1F71" fill-rule="nonzero" d="M55.0341004,34.1143193 C55.0341004,33.4112825 55.4388987,32.8806378 56.0190411,32.8806378 C56.5858271,32.8806378 57.0104886,33.4048851 57.0104886,34.1277874 C57.0104886,34.6715635 56.7341162,35.3550715 56.0323973,35.3550715 C55.3378704,35.3550715 55.0341004,34.7180286 55.0341004,34.1143193 M57.6180285,34.1476529 C57.6180285,32.9604365 56.7745275,32.4429233 55.991986,32.4429233 C55.1149231,32.4429233 54.4272455,33.0799663 54.4272455,34.0944538 C54.4272455,35.1624772 55.1488275,35.7924493 56.0460961,35.7924493 C56.983776,35.7924493 57.6180285,35.1227462 57.6180285,34.1476529" transform="matrix(1 0 0 -1 0 68.235)"/>
    <path fill="#1A1F71" fill-rule="nonzero" d="M58.5276945,34.7843255 C58.5276945,35.1223758 58.5205026,35.3876981 58.5006394,35.6530204 L59.0266717,35.6530204 L59.0605761,35.1223758 L59.0739324,35.1223758 C59.2359202,35.4210317 59.6136634,35.719351 60.1533945,35.719351 C60.605111,35.719351 61.3068298,35.4540287 61.3068298,34.3533451 L61.3068298,32.4428897 L60.7133312,32.4428897 L60.7133312,34.2934119 C60.7133312,34.8105884 60.5177814,35.2419055 59.9578447,35.2419055 C59.5732521,35.2419055 59.2694822,34.9698491 59.1619469,34.6449303 C59.1345494,34.5718656 59.1211931,34.4725381 59.1211931,34.3728739 L59.1211931,32.4428897 L58.5276945,32.4428897 L58.5276945,34.7843255 Z" transform="matrix(1 0 0 -1 0 68.162)"/>
  </g>
</svg>
