<svg xmlns="http://www.w3.org/2000/svg" width="54" height="54" viewBox="0 0 54 54">
  <g fill="none" fill-rule="evenodd">
    <rect width="54" height="54"/>
    <path fill="#96A0B3" d="M35.171,30.937 L26.124,42.246 L19.94,36.06 C19.354,35.474 19.354,34.525 19.94,33.939 C20.525,33.353 21.475,33.353 22.061,33.939 L25.876,37.753 L32.829,29.062 C33.345,28.416 34.288,28.309 34.938,28.829 C35.584,29.346 35.689,30.29 35.171,30.937 L35.171,30.937 Z M20.187,15.805 C20.187,10.442 23.74,8 27.042,8 C30.362,8 33.936,10.442 33.936,15.821 L33.975,24 L20.092,24 L20.187,15.805 Z M39,24 L37.975,24 L37.936,15.805 C37.936,8.054 32.455,4 27.042,4 C21.648,4 16.187,8.054 16.188,15.759 L16.092,24 L15,24 C13.343,24 12,25.343 12,26.999 L12,45 C12,46.649 13.35,47.999 15,47.999 L39,47.999 C40.65,47.999 42,46.649 42,45 L42,26.999 C42,25.349 40.65,24 39,24 L39,24 Z"/>
  </g>
</svg>
