<svg xmlns="http://www.w3.org/2000/svg" width="72" height="42" viewBox="0 0 72 42">
  <g fill="none" fill-rule="evenodd">
    <rect width="72" height="42"/>
    <path fill="#0099DF" fill-rule="nonzero" d="M56.2961354,24.4326862 L56.2961354,24.930151 L56.1679156,24.930151 L56.0195354,24.5884498 L55.8719616,24.930151 L55.7429354,24.930151 L55.7429354,24.4326862 L55.8340601,24.4326862 L55.8340601,24.8078236 L55.9727634,24.4840637 L56.0671138,24.4840637 L56.205817,24.8086391 L56.205817,24.4326862 L56.2961354,24.4326862 Z M55.4824636,24.4326862 L55.4824636,24.8453373 L55.6469721,24.8453373 L55.6469721,24.9293355 L55.2276368,24.9293355 L55.2276368,24.8453373 L55.3921453,24.8453373 L55.3921453,24.4326862 L55.4824636,24.4326862 Z" transform="matrix(1 0 0 -1 0 49.865)"/>
    <polygon fill="#6C6BBD" fill-rule="nonzero" points="41.72 27.569 30.622 27.569 30.622 7.399 41.72 7.399"/>
    <path fill="#D32011" fill-rule="nonzero" d="M31.3265251,17.4844247 C31.3265251,21.5758691 33.2207917,25.2204106 36.1706542,27.569097 C34.0134966,29.2865739 31.2910429,30.3116777 28.3323099,30.3116777 C21.3277976,30.3116777 15.6498365,24.5688132 15.6498365,17.4844247 C15.6498365,10.4000363 21.3277976,4.65717178 28.3323099,4.65717178 C31.2910429,4.65717178 34.0134966,5.68227553 36.1706542,7.39975247 C33.2207917,9.74843888 31.3265251,13.3929804 31.3265251,17.4844247" transform="matrix(1 0 0 -1 0 34.969)"/>
    <path fill="#0099DF" fill-rule="nonzero" d="M56.6921814,17.4844247 C56.6921814,10.4000363 51.0142203,4.65717178 44.0097081,4.65717178 C41.050975,4.65717178 38.3285213,5.68227553 36.1705574,7.39975247 C39.1212263,9.74843888 41.0154928,13.3929804 41.0154928,17.4844247 C41.0154928,21.5758691 39.1212263,25.2204106 36.1705574,27.569097 C38.3285213,29.2865739 41.050975,30.3116777 44.0097081,30.3116777 C51.0142203,30.3116777 56.6921814,24.5688132 56.6921814,17.4844247" transform="matrix(1 0 0 -1 0 34.969)"/>
    <path fill="#110F0D" fill-rule="nonzero" d="M45.4748979,35.919982 C45.6224716,35.919982 45.8345585,35.8914389 45.9966477,35.8270132 L45.7708518,35.1289314 C45.6160203,35.1933571 45.4611888,35.2145606 45.3128086,35.2145606 C44.8337987,35.2145606 44.5942938,34.9014024 44.5942938,34.3386963 L44.5942938,32.4287575 L43.8612634,32.4287575 L43.8612634,35.8343528 L44.587036,35.8343528 L44.587036,35.4208861 C44.7773497,35.7201806 45.0523369,35.919982 45.4748979,35.919982 L45.4748979,35.919982 Z M42.7669596,35.1574744 L41.5694348,35.1574744 L41.5694348,33.6185955 C41.5694348,33.2768943 41.688784,33.0485498 42.0557024,33.0485498 C42.2460161,33.0485498 42.4855211,33.1129755 42.7032529,33.2410116 L42.9145333,32.6073556 C42.6822861,32.4434368 42.3161741,32.3431283 41.9992534,32.3431283 C41.1323584,32.3431283 40.8299531,32.8136811 40.8299531,33.6047318 L40.8299531,35.1574744 L40.146114,35.1574744 L40.146114,35.8343528 L40.8299531,35.8343528 L40.8299531,36.8676117 L41.5694348,36.8676117 L41.5694348,35.8343528 L42.7669596,35.8343528 L42.7669596,35.1574744 L42.7669596,35.1574744 Z M33.3891709,34.4308496 C33.4673931,34.9226058 33.7625406,35.2577829 34.2842905,35.2577829 C34.7560427,35.2577829 35.0592543,34.9584885 35.1366701,34.4308496 L33.3891709,34.4308496 Z M35.8979249,34.1315552 C35.8906672,35.1933571 35.2423103,35.919982 34.2979995,35.919982 C33.3117552,35.919982 32.6214648,35.1933571 32.6214648,34.1315552 C32.6214648,33.0493653 33.3399796,32.3439438 34.3479972,32.3439438 C34.8552316,32.3439438 35.3197261,32.4719799 35.728578,32.8210208 L35.3689173,33.3698631 C35.0874788,33.1415186 34.7278182,33.0134826 34.3899307,33.0134826 C33.9181785,33.0134826 33.4883598,33.2344874 33.3827196,33.84694 L35.8834095,33.84694 C35.8906672,33.9399089 35.8979249,34.0320622 35.8979249,34.1315552 L35.8979249,34.1315552 Z M39.1171297,34.9650126 C38.913107,35.0938642 38.4978037,35.2577829 38.0679851,35.2577829 C37.6663909,35.2577829 37.4268859,35.107728 37.4268859,34.85818 C37.4268859,34.630651 37.6800999,34.5662253 37.9970206,34.5238184 L38.3421658,34.4740719 C39.0751962,34.3664238 39.5187239,34.0532656 39.5187239,33.4546768 C39.5187239,32.8063415 38.9550405,32.3431283 37.9833116,32.3431283 C37.4333372,32.3431283 36.9261028,32.4858437 36.5245086,32.7851381 L36.8696538,33.3625235 C37.1164165,33.1700617 37.4833349,33.0061429 37.9905693,33.0061429 C38.490546,33.0061429 38.7582755,33.1553824 38.7582755,33.4196096 C38.7582755,33.6112559 38.5679618,33.718904 38.1663676,33.7751746 L37.8212224,33.8249211 C37.0672253,33.9325692 36.6583734,34.2742705 36.6583734,34.829637 C36.6583734,35.5065153 37.2083477,35.919982 38.0607273,35.919982 C38.5961862,35.919982 39.0824539,35.7984701 39.4340504,35.5636015 L39.1171297,34.9650126 L39.1171297,34.9650126 Z M48.1529988,35.2161916 C48.0021994,35.2161916 47.8626898,35.1892796 47.7328571,35.136271 C47.6038309,35.082447 47.4917393,35.0074195 47.3973889,34.9111886 C47.3030385,34.8149577 47.2288484,34.6991544 47.1748186,34.5645942 C47.1207889,34.4300341 47.0941772,34.2816101 47.0941772,34.1201379 C47.0941772,33.9578502 47.1207889,33.8102418 47.1748186,33.6756817 C47.2288484,33.5411215 47.3030385,33.4253182 47.3973889,33.3290873 C47.4917393,33.2328564 47.6038309,33.1578289 47.7328571,33.1040049 C47.8626898,33.0501808 48.0021994,33.0240843 48.1529988,33.0240843 C48.3037983,33.0240843 48.4441143,33.0501808 48.5731405,33.1040049 C48.7029732,33.1578289 48.8158712,33.2328564 48.9102216,33.3290873 C49.0061849,33.4253182 49.080375,33.5411215 49.1352111,33.6756817 C49.1892409,33.8102418 49.2158525,33.9578502 49.2158525,34.1201379 C49.2158525,34.2816101 49.1892409,34.4300341 49.1352111,34.5645942 C49.080375,34.6991544 49.0061849,34.8149577 48.9102216,34.9111886 C48.8158712,35.0074195 48.7029732,35.082447 48.5731405,35.136271 C48.4441143,35.1892796 48.3037983,35.2161916 48.1529988,35.2161916 L48.1529988,35.2161916 Z M48.1529988,35.919982 C48.414277,35.919982 48.6562012,35.8743131 48.8787715,35.7821598 C49.1013417,35.690822 49.2940747,35.564417 49.4561639,35.4037603 C49.6190595,35.2431036 49.7456665,35.0530884 49.8375977,34.8345301 C49.9295289,34.6151562 49.9754945,34.3770255 49.9754945,34.1201379 C49.9754945,33.8632504 49.9295289,33.6251197 49.8375977,33.4057458 C49.7456665,33.1871875 49.6190595,32.9963567 49.4561639,32.8357001 C49.2940747,32.6750434 49.1013417,32.5494539 48.8787715,32.4573006 C48.6562012,32.3659628 48.414277,32.3202939 48.1529988,32.3202939 C47.8917207,32.3202939 47.6497965,32.3659628 47.4272262,32.4573006 C47.2046559,32.5494539 47.0135358,32.6750434 46.852253,32.8357001 C46.6909702,32.9963567 46.5643632,33.1871875 46.472432,33.4057458 C46.3805008,33.6251197 46.3345352,33.8632504 46.3345352,34.1201379 C46.3345352,34.3770255 46.3805008,34.6151562 46.472432,34.8345301 C46.5643632,35.0530884 46.6909702,35.2431036 46.852253,35.4037603 C47.0135358,35.564417 47.2046559,35.690822 47.4272262,35.7821598 C47.6497965,35.8743131 47.8917207,35.919982 48.1529988,35.919982 L48.1529988,35.919982 Z M29.1087253,34.1315552 C29.1087253,34.730144 29.4966104,35.2219002 30.1304518,35.2219002 C30.7360688,35.2219002 31.1449207,34.7513474 31.1449207,34.1315552 C31.1449207,33.5117629 30.7360688,33.0420256 30.1304518,33.0420256 C29.4966104,33.0420256 29.1087253,33.5329663 29.1087253,34.1315552 L29.1087253,34.1315552 Z M31.8352111,34.1315552 L31.8352111,35.8343528 L31.1029871,35.8343528 L31.1029871,35.4208861 C30.8699335,35.7275202 30.518337,35.919982 30.0393271,35.919982 C29.0950162,35.919982 28.3555346,35.1721537 28.3555346,34.1315552 C28.3555346,33.0917721 29.0950162,32.3431283 30.0393271,32.3431283 C30.518337,32.3431283 30.8699335,32.5355901 31.1029871,32.8422242 L31.1029871,32.4287575 L31.8352111,32.4287575 L31.8352111,34.1315552 Z M27.7071777,32.4287575 L27.7071777,34.5662253 C27.7071777,35.3711397 27.1999433,35.9126424 26.3830459,35.919982 C25.9532272,35.9273217 25.5088931,35.791946 25.1992301,35.3140535 C24.9669829,35.6916375 24.6000645,35.919982 24.0855723,35.919982 C23.7267181,35.919982 23.3743152,35.8131494 23.099328,35.414362 L23.099328,35.8343528 L22.367104,35.8343528 L22.367104,32.4287575 L23.1065857,32.4287575 L23.1065857,34.3166773 C23.1065857,34.9079265 23.4307641,35.2219002 23.9307408,35.2219002 C24.4170085,35.2219002 24.6637712,34.9014024 24.6637712,34.324017 L24.6637712,32.4287575 L25.4032528,32.4287575 L25.4032528,34.3166773 C25.4032528,34.9079265 25.7419467,35.2219002 26.227408,35.2219002 C26.7281911,35.2219002 26.967696,34.9014024 26.967696,34.324017 L26.967696,32.4287575 L27.7071777,32.4287575 L27.7071777,32.4287575 Z" transform="matrix(1 0 0 -1 0 69.188)"/>
    <path fill="#242021" fill-rule="nonzero" d="M50.7995529,36.3787772 L50.7995529,36.2947791 L50.8761622,36.2947791 C50.8930969,36.2947791 50.9076124,36.2988567 50.9172893,36.3053808 C50.9277727,36.3119049 50.9334176,36.3233221 50.9334176,36.3371859 C50.9334176,36.3510497 50.9277727,36.3616514 50.9172893,36.3681755 C50.9076124,36.3755152 50.8930969,36.3787772 50.8761622,36.3787772 L50.7995529,36.3787772 Z M50.8769686,36.4374944 C50.9164829,36.4374944 50.9471267,36.4285237 50.9688998,36.4105824 C50.990673,36.392641 51.0011564,36.3681755 51.0011564,36.3371859 C51.0011564,36.3110894 50.9930923,36.289886 50.9753511,36.2727601 C50.9584164,36.2564498 50.9334176,36.2458481 50.9019675,36.2417705 L51.0035756,36.1235207 L50.9245471,36.1235207 L50.8301966,36.240955 L50.7995529,36.240955 L50.7995529,36.1235207 L50.7334269,36.1235207 L50.7334269,36.4374944 L50.8769686,36.4374944 Z M50.8568083,36.0158726 C50.8930969,36.0158726 50.9269663,36.0223967 50.95761,36.0362605 C50.9890602,36.0501242 51.0164783,36.0688811 51.0398643,36.0925311 C51.0632503,36.116181 51.0817978,36.1439086 51.0955068,36.1765292 C51.1084095,36.2083344 51.1156672,36.242586 51.1156672,36.2792843 C51.1156672,36.3159825 51.1084095,36.3502342 51.0955068,36.3820393 C51.0817978,36.4138444 51.0632503,36.4423875 51.0398643,36.4660375 C51.0164783,36.4896874 50.9890602,36.5084443 50.95761,36.5214926 C50.9269663,36.5353563 50.8930969,36.5418805 50.8568083,36.5418805 C50.8205197,36.5418805 50.7858438,36.5353563 50.7543937,36.5214926 C50.7221371,36.5084443 50.6939127,36.4896874 50.6705266,36.4660375 C50.6471406,36.4423875 50.6285931,36.4138444 50.6156905,36.3820393 C50.6019815,36.3502342 50.5955301,36.3159825 50.5955301,36.2792843 C50.5955301,36.242586 50.6019815,36.2083344 50.6156905,36.1765292 C50.6285931,36.1439086 50.6471406,36.116181 50.6705266,36.0925311 C50.6939127,36.0688811 50.7221371,36.0501242 50.7543937,36.0362605 C50.7858438,36.0223967 50.8205197,36.0158726 50.8568083,36.0158726 L50.8568083,36.0158726 Z M50.8568083,36.6177235 C50.9043867,36.6177235 50.9479331,36.6087528 50.9890602,36.5908114 C51.0309937,36.5736856 51.0664759,36.5492201 51.0979261,36.5182305 C51.1285698,36.4880564 51.1527622,36.4521737 51.1705033,36.4105824 C51.1882444,36.3698066 51.197115,36.3257687 51.197115,36.2792843 C51.197115,36.2327998 51.1882444,36.188762 51.1705033,36.1479862 C51.1527622,36.1072104 51.1285698,36.0713277 51.0979261,36.0411536 C51.0664759,36.0101639 51.0309937,35.9856985 50.9890602,35.9677571 C50.9479331,35.9498158 50.9043867,35.9408451 50.8568083,35.9408451 C50.8084234,35.9408451 50.7640707,35.9498158 50.7221371,35.9677571 C50.6802036,35.9856985 50.643915,36.0101639 50.6132712,36.0411536 C50.5826275,36.0713277 50.5584351,36.1072104 50.540694,36.1479862 C50.5229529,36.188762 50.5140823,36.2327998 50.5140823,36.2792843 C50.5140823,36.3257687 50.5229529,36.3698066 50.540694,36.4105824 C50.5584351,36.4521737 50.5826275,36.4880564 50.6132712,36.5182305 C50.643915,36.5492201 50.6802036,36.5736856 50.7221371,36.5908114 C50.7640707,36.6087528 50.8084234,36.6177235 50.8568083,36.6177235 L50.8568083,36.6177235 Z" transform="matrix(1 0 0 -1 0 72.882)"/>
  </g>
</svg>
