<svg xmlns="http://www.w3.org/2000/svg" width="72" height="42" viewBox="0 0 72 42">
  <g fill="none" fill-rule="evenodd">
    <rect width="72" height="42"/>
    <path fill="#000" d="M24.1616857,34.8771471 C24.1616857,34.2940066 24.5479952,33.8153455 25.1801381,33.8153455 C25.7838345,33.8153455 26.1912155,34.2731802 26.1912155,34.8771471 C26.1912155,35.481114 25.7838345,35.9392959 25.1801381,35.9392959 C24.5479952,35.9392959 24.1616857,35.4602876 24.1616857,34.8771471 Z M26.8795488,34.8771471 L26.8795488,33.2183207 L26.1490726,33.2183207 L26.1490726,33.6209653 C25.9172869,33.3224529 25.5660964,33.1350149 25.0884774,33.1350149 C24.1476381,33.1350149 23.4101381,33.8639405 23.4101381,34.8771471 C23.4101381,35.8907008 24.1476381,36.6196264 25.0884774,36.6196264 C25.5660964,36.6196264 25.9172869,36.4321884 26.1490726,36.133676 L26.1490726,36.5363207 L26.8795488,36.5363207 L26.8795488,34.8771471 Z M51.543656,34.8771471 C51.543656,34.2940066 51.9299655,33.8153455 52.5621083,33.8153455 C53.166156,33.8153455 53.5731857,34.2731802 53.5731857,34.8771471 C53.5731857,35.481114 53.166156,35.9392959 52.5621083,35.9392959 C51.9299655,35.9392959 51.543656,35.4602876 51.543656,34.8771471 Z M54.261519,34.8771471 L54.261519,31.8857752 L53.5310429,31.8857752 L53.5310429,33.6209653 C53.2996083,33.3224529 52.9484179,33.1350149 52.4707988,33.1350149 C51.5296083,33.1350149 50.7921083,33.8639405 50.7921083,34.8771471 C50.7921083,35.8907008 51.5296083,36.6196264 52.4707988,36.6196264 C52.9484179,36.6196264 53.2996083,36.4321884 53.5310429,36.133676 L53.5310429,36.5363207 L54.261519,36.5363207 L54.261519,34.8771471 Z M35.9388583,33.7806347 C36.4094536,33.7806347 36.7114774,34.072205 36.7887393,34.5855769 L35.0471857,34.5855769 C35.1244476,34.1065686 35.4190964,33.7806347 35.9388583,33.7806347 Z M35.952906,33.1350149 C34.9699238,33.1350149 34.2815905,33.843114 34.2815905,34.8771471 C34.2815905,35.9323537 34.998019,36.6196264 36.0020726,36.6196264 C36.5077869,36.6196264 36.9713583,36.4946678 37.3787393,36.1545025 L37.020525,35.619957 C36.7395726,35.8421058 36.3813583,35.9670645 36.0442155,35.9670645 C35.5736202,35.9670645 35.145519,35.7518579 35.0401619,35.1548331 L37.5332631,35.1548331 C37.5402869,35.0645851 37.5473107,34.9743372 37.5473107,34.8771471 C37.5402869,33.843114 36.8940964,33.1350149 35.952906,33.1350149 Z M44.7667333,34.8771471 C44.7667333,34.2940066 45.1530429,33.8153455 45.7851857,33.8153455 C46.3888821,33.8153455 46.7962631,34.2731802 46.7962631,34.8771471 C46.7962631,35.481114 46.3888821,35.9392959 45.7851857,35.9392959 C45.1530429,35.9392959 44.7667333,35.4602876 44.7667333,34.8771471 Z M47.4845964,34.8771471 L47.4845964,33.2183207 L46.7541202,33.2183207 L46.7541202,33.6209653 C46.5223345,33.3224529 46.171144,33.1350149 45.6938762,33.1350149 C44.7526857,33.1350149 44.0151857,33.8639405 44.0151857,34.8771471 C44.0151857,35.8907008 44.7526857,36.6196264 45.6938762,36.6196264 C46.171144,36.6196264 46.5223345,36.4321884 46.7541202,36.133676 L46.7541202,36.5363207 L47.4845964,36.5363207 L47.4845964,34.8771471 Z M40.6441083,34.8771471 C40.6441083,35.8837587 41.3535131,36.6196264 42.4351798,36.6196264 C42.940894,36.6196264 43.2776857,36.5085521 43.6429238,36.223924 L43.2920845,35.6407835 C43.018156,35.8351636 42.7301798,35.9392959 42.4141083,35.9392959 C41.8311321,35.9323537 41.4026798,35.5158248 41.4026798,34.8771471 C41.4026798,34.2388165 41.8311321,33.8222876 42.4141083,33.8153455 C42.7301798,33.8153455 43.018156,33.9194777 43.2920845,34.1138579 L43.6429238,33.5307174 C43.2776857,33.2460893 42.940894,33.1350149 42.4351798,33.1350149 C41.3535131,33.1350149 40.6441083,33.8708826 40.6441083,34.8771471 Z M50.0549595,33.1350149 C49.633531,33.1350149 49.3596024,33.329395 49.1699595,33.6209653 L49.1699595,33.2183207 L48.4465071,33.2183207 L48.4465071,36.5363207 L49.1769833,36.5363207 L49.1769833,34.6758248 C49.1769833,34.127395 49.4157929,33.8222876 49.8934119,33.8222876 C50.0409119,33.8222876 50.1954357,33.843114 50.3499595,33.9055934 L50.5747214,33.2252628 C50.4131738,33.1627835 50.2024595,33.1350149 50.0549595,33.1350149 Z M30.4894357,33.4821223 C30.1382452,33.2530314 29.6536024,33.1350149 29.1197929,33.1350149 C28.2699119,33.1350149 27.722406,33.5376595 27.722406,34.1968165 C27.722406,34.7383041 28.1294357,35.0715273 28.8809833,35.1756595 L29.22515,35.2242545 C29.6255071,35.2797917 29.81515,35.383924 29.81515,35.571362 C29.81515,35.8282215 29.5482452,35.9740066 29.0495548,35.9740066 C28.5438405,35.9740066 28.1786024,35.8143372 27.932769,35.6268992 L27.5889536,36.1892132 C27.9889595,36.4804364 28.4946738,36.6196264 29.042531,36.6196264 C30.0118167,36.6196264 30.5733702,36.1683868 30.5733702,35.5366512 C30.5733702,34.9535107 30.1312214,34.6480562 29.4007452,34.543924 L29.0565786,34.4953289 C28.7405071,34.453676 28.48765,34.3915438 28.48765,34.169395 C28.48765,33.9264198 28.7264595,33.7806347 29.1268167,33.7806347 C29.555269,33.7806347 29.9696738,33.9403041 30.1733643,34.0652628 L30.4894357,33.4821223 Z M39.9069595,33.1350149 C39.485531,33.1350149 39.2116024,33.329395 39.0219595,33.6209653 L39.0219595,33.2183207 L38.2985071,33.2183207 L38.2985071,36.5363207 L39.0289833,36.5363207 L39.0289833,34.6758248 C39.0289833,34.127395 39.2677929,33.8222876 39.7454119,33.8222876 C39.8929119,33.8222876 40.0474357,33.843114 40.2019595,33.9055934 L40.4267214,33.2252628 C40.2651738,33.1627835 40.0544595,33.1350149 39.9069595,33.1350149 Z M33.6775429,33.2183207 L32.4838464,33.2183207 L32.4838464,32.2117091 L31.7463464,32.2117091 L31.7463464,33.2183207 L31.0650369,33.2183207 L31.0650369,33.8778248 L31.7463464,33.8778248 L31.7463464,35.3908661 C31.7463464,36.1614446 32.0483702,36.6196264 32.9122988,36.6196264 C33.228019,36.6196264 33.5932571,36.5224364 33.8250429,36.3627669 L33.6143286,35.7449157 C33.3965905,35.8698744 33.157781,35.9323537 32.9684893,35.9323537 C32.6032512,35.9323537 32.4838464,35.710205 32.4838464,35.3769818 L32.4838464,33.8778248 L33.6775429,33.8778248 L33.6775429,33.2183207 Z M22.7639476,36.5363207 L22.7639476,34.453676 C22.7639476,33.6695603 22.2585845,33.141957 21.4438226,33.1350149 C21.0153702,33.1280727 20.5728702,33.2599736 20.2641738,33.7250975 C20.0323881,33.3571636 19.66715,33.1350149 19.1544119,33.1350149 C18.7961976,33.1350149 18.4450071,33.2391471 18.1710786,33.6279074 L18.1710786,33.2183207 L17.4409536,33.2183207 L17.4409536,36.5363207 L18.1781024,36.5363207 L18.1781024,34.6966512 C18.1781024,34.1208 18.5011976,33.8153455 18.9998881,33.8153455 C19.484531,33.8153455 19.7303643,34.127395 19.7303643,34.6897091 L19.7303643,36.5363207 L20.4675131,36.5363207 L20.4675131,34.6966512 C20.4675131,34.1208 20.804656,33.8153455 21.2892988,33.8153455 C21.7879893,33.8153455 22.0267988,34.127395 22.0267988,34.6897091 L22.0267988,36.5363207 L22.7639476,36.5363207 Z"/>
    <polygon fill="#FF5F00" points="30.246 27.581 41.309 27.581 41.309 7.933 30.246 7.933"/>
    <path fill="#EB001B" d="M30.9489685,17.7567669 C30.9489685,13.7705851 32.8373196,10.2207174 35.7778375,7.93258512 C33.627147,6.25918017 30.9138494,5.26089917 27.9645518,5.26089917 C20.9825339,5.26089917 15.3227482,10.8555769 15.3227482,17.7567669 C15.3227482,24.657957 20.9825339,30.2526347 27.9645518,30.2526347 C30.9138494,30.2526347 33.627147,29.2543537 35.7778375,27.5809488 C32.8373196,25.2928165 30.9489685,21.7429488 30.9489685,17.7567669"/>
    <path fill="#F79E1B" d="M56.2329619,17.7567669 C56.2329619,24.657957 50.572825,30.2526347 43.5911583,30.2526347 C40.6418607,30.2526347 37.9282119,29.2543537 35.7778726,27.5809488 C38.7183905,25.2928165 40.6067417,21.7429488 40.6067417,17.7567669 C40.6067417,13.7705851 38.7183905,10.2207174 35.7778726,7.93258512 C37.9282119,6.25918017 40.6418607,5.26089917 43.5911583,5.26089917 C50.572825,5.26089917 56.2329619,10.8555769 56.2329619,17.7567669"/>
  </g>
</svg>
