<svg xmlns="http://www.w3.org/2000/svg" width="72" height="42" viewBox="0 0 72 42">
  <g fill="none" fill-rule="evenodd">
    <rect width="72" height="42"/>
    <path fill="#1A1F71" d="M29.0210194,12.3007612 L22.1169931,28.7714152 L17.6131799,28.7714152 L14.2152692,15.6264201 C14.0095761,14.8181675 13.8298108,14.5212089 13.2033977,14.1796548 C12.1787353,13.6230736 10.4872125,13.1024455 9,12.7785222 L9.10059945,12.3007612 L16.3513654,12.3007612 C17.274737,12.3007612 18.1058061,12.9154204 18.3170303,13.9791473 L20.1119182,23.5108589 L24.5445167,12.3007612 L29.0210194,12.3007612 Z M46.6684449,23.3940115 C46.6874586,19.0474929 40.660134,18.8065382 40.6998898,16.8643811 C40.7130265,16.2742667 41.2758303,15.6454337 42.5065315,15.484682 C43.1170423,15.4058619 44.8002682,15.3425983 46.7092378,16.2220657 L47.4556097,12.7277039 C46.4302559,12.3571108 45.1114005,12 43.4700046,12 C39.2576187,12 36.2942561,14.2373871 36.2704026,17.4441243 C36.2437835,19.8152983 38.3874852,21.137265 39.9991507,21.9268497 C41.660943,22.7344109 42.2178699,23.2522734 42.2099187,23.973409 C42.1985105,25.0782745 40.884495,25.5674436 39.661745,25.5861115 C37.5176975,25.619299 36.2755882,25.006714 35.2851503,24.5452011 L34.5118136,28.1557189 C35.5091655,28.6120463 37.3462291,29.0092585 39.2489761,29.0300007 C43.7272074,29.0300007 46.6553082,26.8181956 46.6684449,23.3940115 L46.6684449,23.3940115 Z M57.7924627,28.7714152 L61.732435,28.7714152 L58.2902744,12.3007612 L54.6555574,12.3007612 C53.8362423,12.3007612 53.14622,12.7757566 52.8406189,13.5083004 L46.4465039,28.7714152 L50.9216238,28.7714152 L51.8100795,26.3117413 L57.275983,26.3117413 C57.275983,26.3117413 57.7924627,28.7714152 57.7924627,28.7714152 L57.7924627,28.7714152 Z M53.0362865,22.9363012 L55.2792049,16.7506449 L56.5697126,22.9363012 L53.0362865,22.9363012 Z M35.1095333,12.3007612 L31.5864783,28.7714152 L27.3253483,28.7714152 L30.848749,12.3007612 L35.1095333,12.3007612 Z"/>
  </g>
</svg>
